<svg id="expanded" enable-background="new 0 0 512 512" height="512" viewBox="0 0 512 512" width="512" xmlns="http://www.w3.org/2000/svg"><g><g><path d="m256 331.08c-4.73 0-9.219-2.093-12.259-5.718l-85.33-101.74c-5.678-6.771-4.793-16.862 1.978-22.541 6.77-5.678 16.862-4.793 22.541 1.978l73.049 87.098 179.744-215.077c5.667-6.779 15.757-7.684 22.538-2.017 6.78 5.667 7.683 15.757 2.017 22.537l-192 229.74c-3.037 3.634-7.527 5.735-12.263 5.74-.006 0-.01 0-.015 0z"/></g><g><path d="m256 464c-114.691 0-208-93.309-208-208s93.309-208 208-208c43.359 0 84.927 13.234 120.209 38.271 7.206 5.114 8.902 15.102 3.789 22.308-5.114 7.206-15.102 8.903-22.309 3.789-29.839-21.175-65.003-32.368-101.689-32.368-97.047 0-176 78.953-176 176s78.953 176 176 176 176-78.953 176-176c0-18.506-2.857-36.723-8.493-54.146-2.72-8.408 1.892-17.428 10.3-20.148 8.411-2.717 17.428 1.893 20.147 10.299 6.666 20.61 10.046 42.141 10.046 63.995 0 114.691-93.309 208-208 208z"/></g></g></svg>