<?xml version="1.0" standalone="no"?>
<!DOCTYPE svg PUBLIC "-//W3C//DTD SVG 20010904//EN"
 "http://www.w3.org/TR/2001/REC-SVG-20010904/DTD/svg10.dtd">
<svg version="1.0" xmlns="http://www.w3.org/2000/svg"
 width="40.000000pt" height="32.000000pt" viewBox="0 0 40.000000 32.000000"
 preserveAspectRatio="xMidYMid meet">

<g transform="translate(0.000000,32.000000) scale(0.100000,-0.100000)"
fill="#000000" stroke="none">
<path d="M110 140 l0 -80 95 0 95 0 0 80 0 80 -95 0 -95 0 0 -80z m174 54 c3
-9 6 -40 6 -70 l0 -54 -85 0 -85 0 0 54 c0 85 1 86 85 86 57 0 74 -3 79 -16z"/>
<path d="M162 165 c20 -14 40 -25 43 -25 3 0 23 11 43 25 20 14 33 25 28 25
-4 0 -21 -9 -37 -21 l-29 -21 -34 21 c-47 29 -58 26 -14 -4z"/>
</g>
</svg>
