<?xml version="1.0" standalone="no"?>
<!DOCTYPE svg PUBLIC "-//W3C//DTD SVG 20010904//EN"
 "http://www.w3.org/TR/2001/REC-SVG-20010904/DTD/svg10.dtd">
<svg version="1.0" xmlns="http://www.w3.org/2000/svg"
 width="25.000000pt" height="28.000000pt" viewBox="0 0 25.000000 28.000000"
 preserveAspectRatio="xMidYMid meet">

<g transform="translate(0.000000,28.000000) scale(0.100000,-0.100000)"
fill="#000000" stroke="none">
<path d="M117 199 c-9 -6 -17 -18 -17 -29 0 -10 -6 -21 -12 -24 -10 -5 -10 -7
0 -12 6 -3 12 -21 12 -40 0 -19 5 -34 10 -34 6 0 10 16 10 35 0 24 5 35 15 35
8 0 15 5 15 10 0 6 -7 10 -15 10 -8 0 -15 7 -15 15 0 8 7 15 15 15 8 0 15 4
15 9 0 16 -14 20 -33 10z"/>
</g>
</svg>
