<?xml version="1.0" standalone="no"?>
<!DOCTYPE svg PUBLIC "-//W3C//DTD SVG 20010904//EN"
 "http://www.w3.org/TR/2001/REC-SVG-20010904/DTD/svg10.dtd">
<svg version="1.0" xmlns="http://www.w3.org/2000/svg"
 width="36.000000pt" height="29.000000pt" viewBox="0 0 36.000000 29.000000"
 preserveAspectRatio="xMidYMid meet">

<g transform="translate(0.000000,29.000000) scale(0.100000,-0.100000)"
fill="#000000" stroke="none">
<path d="M157 182 c-37 -41 -6 -112 48 -112 30 0 65 32 65 60 0 16 -7 20 -30
20 -16 0 -30 -4 -30 -10 0 -5 7 -10 15 -10 20 0 19 -26 -1 -34 -27 -10 -53 3
-60 30 -8 32 11 54 47 54 16 0 29 5 29 10 0 18 -66 11 -83 -8z"/>
</g>
</svg>
