<?xml version="1.0" standalone="no"?>
<!DOCTYPE svg PUBLIC "-//W3C//DTD SVG 20010904//EN"
 "http://www.w3.org/TR/2001/REC-SVG-20010904/DTD/svg10.dtd">
<svg version="1.0" xmlns="http://www.w3.org/2000/svg"
 width="36.000000pt" height="34.000000pt" viewBox="0 0 36.000000 34.000000"
 preserveAspectRatio="xMidYMid meet">

<g transform="translate(0.000000,34.000000) scale(0.100000,-0.100000)"
fill="#000000" stroke="none">
<path d="M203 243 l37 -4 0 -79 0 -79 -37 -4 -38 -4 43 -1 42 -2 0 90 0 90
-42 -2 -43 -1 38 -4z"/>
<path d="M153 188 c5 -15 0 -18 -33 -18 -22 0 -40 -4 -40 -10 0 -5 18 -10 40
-10 33 0 38 -3 33 -17 -5 -14 -1 -13 18 5 l23 22 -23 23 c-19 17 -23 18 -18 5z"/>
</g>
</svg>
