<?xml version="1.0" standalone="no"?>
<!DOCTYPE svg PUBLIC "-//W3C//DTD SVG 20010904//EN"
 "http://www.w3.org/TR/2001/REC-SVG-20010904/DTD/svg10.dtd">
<svg version="1.0" xmlns="http://www.w3.org/2000/svg"
 width="41.000000pt" height="35.000000pt" viewBox="0 0 41.000000 35.000000"
 preserveAspectRatio="xMidYMid meet">

<g transform="translate(0.000000,35.000000) scale(0.100000,-0.100000)"
fill="#000000" stroke="none">
<path d="M176 284 c-9 -8 -16 -21 -15 -27 0 -8 2 -8 6 1 2 7 14 17 25 23 23
13 48 -4 48 -32 0 -16 -8 -19 -55 -19 l-55 0 0 -70 0 -70 75 0 75 0 0 70 c0
56 -3 70 -15 70 -9 0 -15 9 -15 25 0 14 -8 29 -19 35 -27 14 -37 13 -55 -6z
m94 -124 l0 -60 -65 0 -65 0 0 60 0 60 65 0 65 0 0 -60z"/>
<path d="M195 170 c-7 -12 2 -30 16 -30 12 0 12 27 0 35 -5 3 -12 1 -16 -5z"/>
</g>
</svg>
