<?xml version="1.0" standalone="no"?>
<!DOCTYPE svg PUBLIC "-//W3C//DTD SVG 20010904//EN"
 "http://www.w3.org/TR/2001/REC-SVG-20010904/DTD/svg10.dtd">
<svg version="1.0" xmlns="http://www.w3.org/2000/svg"
 width="38.000000pt" height="30.000000pt" viewBox="0 0 38.000000 30.000000"
 preserveAspectRatio="xMidYMid meet">

<g transform="translate(0.000000,30.000000) scale(0.100000,-0.100000)"
fill="#000000" stroke="none">
<path d="M158 225 c-34 -19 -48 -44 -48 -85 0 -42 15 -67 52 -86 66 -34 138
11 138 87 0 74 -78 120 -142 84z m130 -90 c-4 -49 -32 -61 -48 -21 -8 21 -16
26 -45 26 -19 0 -35 5 -35 10 0 6 7 10 15 10 8 0 15 7 15 14 0 8 12 21 28 29
24 12 29 12 50 -7 18 -16 22 -29 20 -61z m-108 -42 c0 -7 5 -13 10 -13 6 0 10
-4 10 -10 0 -5 -9 -10 -19 -10 -25 0 -61 46 -61 78 l0 26 30 -29 c17 -16 30
-35 30 -42z"/>
</g>
</svg>
